<?xml version="1.0" encoding="UTF-8"?>
<svg width="212px" height="154px" viewBox="0 0 212 154" version="1.1" xmlns="http://www.w3.org/2000/svg" xmlns:xlink="http://www.w3.org/1999/xlink">
    <!-- Generator: Sketch 56.3 (81716) - https://sketch.com -->
    <title>Untitled 2</title>
    <desc>Created with Sketch.</desc>
    <defs>
        <linearGradient x1="50.2053714%" y1="8.60150594%" x2="48.6165815%" y2="100.147371%" id="linearGradient-1">
            <stop stop-color="#FFFFFF" stop-opacity="0" offset="0%"></stop>
            <stop stop-color="#64B5F6" stop-opacity="0.6" offset="100%"></stop>
        </linearGradient>
        <linearGradient x1="27.4344153%" y1="-13.5809047%" x2="56.8265219%" y2="87.4932547%" id="linearGradient-2">
            <stop stop-color="#E57373" offset="0%"></stop>
            <stop stop-color="#AD1457" offset="100%"></stop>
        </linearGradient>
        <linearGradient x1="35365.5635%" y1="55133.2007%" x2="33090.5539%" y2="68371.6518%" id="linearGradient-3">
            <stop stop-color="#E57373" offset="0%"></stop>
            <stop stop-color="#AD1457" offset="100%"></stop>
        </linearGradient>
        <linearGradient x1="111.819827%" y1="25.6692707%" x2="12.3866344%" y2="86.9019807%" id="linearGradient-4">
            <stop stop-color="#FFF8E1" offset="0%"></stop>
            <stop stop-color="#FFCC80" offset="100%"></stop>
        </linearGradient>
        <linearGradient x1="44452.9861%" y1="29459.8061%" x2="39051.8408%" y2="26950.1679%" id="linearGradient-5">
            <stop stop-color="#FFF8E1" offset="0%"></stop>
            <stop stop-color="#FFCC80" offset="100%"></stop>
        </linearGradient>
        <linearGradient x1="81.2519453%" y1="25.6645104%" x2="23.4081167%" y2="61.2860716%" id="linearGradient-6">
            <stop stop-color="#FFF8E1" offset="0%"></stop>
            <stop stop-color="#FFCC80" offset="100%"></stop>
        </linearGradient>
        <linearGradient x1="80.9077767%" y1="10.9395146%" x2="13.2106945%" y2="94.4212601%" id="linearGradient-7">
            <stop stop-color="#FFB74D" offset="0%"></stop>
            <stop stop-color="#F4511E" offset="100%"></stop>
        </linearGradient>
    </defs>
    <g id="Page-1" stroke="none" stroke-width="1" fill="none" fill-rule="evenodd">
        <g id="Group-2" fill-rule="nonzero">
            <g id="Group">
                <path d="M71.5402,0.1343 L45.6977,0.1343 C42.1316,0.1343 39.2407,2.9207 39.2407,6.358 L39.2407,31.2669 C39.2407,34.7042 42.1316,37.4906 45.6977,37.4906 L71.5402,37.4906 C75.1063,37.4906 77.9972,34.7042 77.9972,31.2669 L77.9972,6.358 C77.9972,2.9207 75.1063,0.1343 71.5402,0.1343 Z" id="Path" fill="#56CCF2"></path>
                <polygon id="Path" fill="#FFFFFF" points="68.316 17.5068 64.3874 17.5068 67.4398 14.5443 66.1115 13.2459 61.7212 17.5068 59.837 17.5068 59.837 15.6781 64.2272 11.4173 62.8895 10.128 59.837 13.0905 59.837 9.2777 57.9528 9.2777 57.9528 13.0905 54.9004 10.128 53.5626 11.4173 57.9528 15.6781 57.9528 17.5068 56.0686 17.5068 51.6784 13.2459 50.35 14.5443 53.4025 17.5068 49.4739 17.5068 49.4739 19.3354 53.4025 19.3354 50.35 22.2979 51.6784 23.5963 56.0686 19.3354 57.9528 19.3354 57.9528 21.1641 53.5626 25.4249 54.9004 26.7142 57.9528 23.7517 57.9528 27.5645 59.837 27.5645 59.837 23.7517 62.8895 26.7142 64.2272 25.4249 59.837 21.1641 59.837 19.3354 61.7212 19.3354 66.1115 23.5963 67.4398 22.2979 64.3874 19.3354 68.316 19.3354"></polygon>
                <path d="M205.189,88.3112 L179.346,88.3112 C175.78,88.3112 172.889,91.098 172.889,94.535 L172.889,119.444 C172.889,122.881 175.78,125.668 179.346,125.668 L205.189,125.668 C208.755,125.668 211.646,122.881 211.646,119.444 L211.646,94.535 C211.646,91.098 208.755,88.3112 205.189,88.3112 Z" id="Path" fill="#F2C94C"></path>
                <path d="M201.152,103.855 C201.152,99.283 197.384,95.626 192.674,95.626 C187.963,95.626 184.195,99.283 184.195,103.855 C184.195,106.689 185.702,109.25 187.963,110.712 L187.963,112.998 C187.963,114.187 188.717,115.193 189.847,115.558 L189.847,115.741 C189.847,117.296 191.072,118.484 192.674,118.484 C194.275,118.484 195.5,117.296 195.5,115.741 L195.5,115.558 C196.63,115.193 197.384,114.187 197.384,112.998 L197.384,110.712 C199.645,109.25 201.152,106.689 201.152,103.855 Z M186.079,103.855 C186.079,100.289 188.999,97.455 192.674,97.455 C196.348,97.455 199.268,100.289 199.268,103.855 C199.268,107.055 196.819,109.707 193.616,110.164 L193.616,107.878 L195.217,106.324 C195.594,105.958 195.594,105.409 195.217,105.044 C194.84,104.678 194.275,104.678 193.898,105.044 L192.674,106.232 L191.449,105.044 C191.072,104.678 190.507,104.678 190.13,105.044 C189.753,105.409 189.753,105.958 190.13,106.324 L191.731,107.878 L191.731,110.164 C188.528,109.707 186.079,107.055 186.079,103.855 Z M192.674,116.656 C192.108,116.656 191.731,116.29 191.731,115.741 L193.616,115.741 C193.616,116.29 193.239,116.656 192.674,116.656 Z M195.5,112.998 C195.5,113.547 195.123,113.913 194.558,113.913 L190.789,113.913 C190.224,113.913 189.847,113.547 189.847,112.998 L189.847,111.627 C190.695,111.901 191.637,112.084 192.674,112.084 C193.71,112.084 194.652,111.901 195.5,111.627 L195.5,112.998 Z" id="Shape" fill="#FFFFFF"></path>
                <path d="M32.7836,88.3112 L6.9411,88.3112 C3.375,88.3112 0.4841,91.098 0.4841,94.535 L0.4841,119.444 C0.4841,122.881 3.375,125.668 6.9411,125.668 L32.7836,125.668 C36.3497,125.668 39.2406,122.881 39.2406,119.444 L39.2406,94.535 C39.2406,91.098 36.3497,88.3112 32.7836,88.3112 Z" id="Path" fill="#F58A8A"></path>
                <path d="M25.9209,103.855 L24.9788,103.855 L24.9788,102.026 C24.9788,99.503 22.8685,97.454 20.2683,97.454 C17.6681,97.454 15.5578,99.503 15.5578,102.026 L15.5578,103.855 L14.6157,103.855 C13.5793,103.855 12.7314,104.678 12.7314,105.684 L12.7314,114.827 C12.7314,115.833 13.5793,116.656 14.6157,116.656 L25.9209,116.656 C26.9572,116.656 27.8051,115.833 27.8051,114.827 L27.8051,105.684 C27.8051,104.678 26.9572,103.855 25.9209,103.855 Z M20.2683,112.084 C19.232,112.084 18.3841,111.261 18.3841,110.255 C18.3841,109.249 19.232,108.427 20.2683,108.427 C21.3046,108.427 22.1525,109.249 22.1525,110.255 C22.1525,111.261 21.3046,112.084 20.2683,112.084 Z M23.1888,103.855 L17.3478,103.855 L17.3478,102.026 C17.3478,100.463 18.6573,99.192 20.2683,99.192 C21.8793,99.192 23.1888,100.463 23.1888,102.026 L23.1888,103.855 Z" id="Shape" fill="#FFFFFF"></path>
                <path d="M162.794,0.1343 L136.952,0.1343 C133.386,0.1343 130.495,2.9207 130.495,6.358 L130.495,31.2669 C130.495,34.7042 133.386,37.4906 136.952,37.4906 L162.794,37.4906 C166.36,37.4906 169.251,34.7042 169.251,31.2669 L169.251,6.358 C169.251,2.9207 166.36,0.1343 162.794,0.1343 Z" id="Path" fill="#6FCF97"></path>
                <polygon id="Path" fill="#FFFFFF" points="155.282 13.7548 139.896 13.7548 139.896 23.0873 155.282 23.0873"></polygon>
                <polygon id="Path" fill="#FFFFFF" points="159.429 15.6118 156.033 16.9971 156.033 19.8842 159.429 21.2695 160.661 21.2695 160.661 15.6118"></polygon>
            </g>
            <g id="Group-15" transform="translate(43.000000, 27.000000)">
                <path d="M125.670026,61.1242 C125.678,69.5207 123.866,77.826 120.349,85.508 C116.833,93.19 111.69,100.079 105.251,105.734 C103.459,107.308 101.576,108.783 99.6104,110.15 C97.0875,111.905 94.4315,113.474 91.6649,114.846 L91.6359,114.846 C91.0462,115.144 90.4469,115.428 89.8428,115.703 C89.5673,115.833 89.2967,115.955 89.0163,116.076 C87.2668,116.849 85.4721,117.543 83.6323,118.158 C82.1824,118.624 80.6938,119.09 79.1907,119.472 C70.5204,121.695 61.4574,122.106 52.6088,120.678 C51.56,120.511 50.5257,120.32 49.4963,120.101 L48.6263,119.91 C46.0002,119.318 43.4171,118.562 40.8934,117.646 C39.4273,117.115 37.9903,116.532 36.5823,115.899 C36.0361,115.652 35.49,115.4 34.9535,115.139 C34.5862,114.962 34.2237,114.781 33.8612,114.599 C24.0273,109.621 15.7426,102.213 9.8556,93.1345 C3.96854,84.0557 0.690642,73.6318 0.357539,62.9303 C0.0244356,52.2289 2.64811,41.6343 7.95989,32.2316 C13.2717,22.8289 21.0807,14.9558 30.5873,9.41863 C40.0939,3.88145 50.9566,0.879105 62.0629,0.719034 C73.1692,0.558963 84.1201,3.24692 93.7942,8.50766 C103.468,13.7684 111.518,21.4129 117.119,30.6583 C122.72,39.9038 125.670026,50.418 125.670026,61.1242 Z" id="Path" fill="url(#linearGradient-1)"></path>
                <path d="M79.4226,65.4939 C83.4147,69.4536 95.0431,84.8639 95.0431,84.8639 L87.8998,94.9588 L81.4767,74.904 L79.4226,65.4939 Z" id="Path" fill="url(#linearGradient-2)"></path>
                <path d="M91.6359,114.878 C91.0462,115.177 90.4469,115.461 89.8428,115.736 C89.5673,115.866 89.2967,115.987 89.0163,116.108 C87.2668,116.882 85.4721,117.576 83.6323,118.191 C82.1824,118.656 80.6938,119.122 79.1907,119.504 C70.5204,121.727 61.4574,122.139 52.6088,120.711 C51.56,120.543 50.5257,120.352 49.4963,120.133 C45.7265,122.639 42.2466,124.759 39.9413,125.723 L40.1298,124.172 L40.9127,117.683 L42.7251,102.585 L49.9071,95.8904 L33.7598,97.0969 C33.7598,97.0969 35.4562,74.4101 42.0775,69.7423 C48.6988,65.0745 55.6439,60.8912 55.6439,60.8912 C56.4725,61.4179 57.3852,61.8097 58.3456,62.0512 C60.6422,62.6631 63.0293,62.8977 65.4067,62.7453 C68.2389,62.6195 71.0711,60.0806 71.2064,59.9502 C71.2064,59.9502 75.6529,60.8027 79.4227,65.5124 C81.3028,67.9369 82.6528,70.704 83.3906,73.6461 C84.3186,77.0888 85.9667,85.1293 87.8419,94.8422 C89.0695,101.094 90.3599,108.026 91.6359,114.878 Z" id="Path" fill="url(#linearGradient-3)"></path>
                <path d="M95.0433,84.8824 L101.935,92.6668 L126.173,69.4769 L127.091,64.7299 L131.925,60.6816 L129.774,66.8541 L129.774,74.8947 C129.774,74.8947 111.079,104.103 105.927,105.608 C99.9006,107.374 87.9097,94.9494 87.9097,94.9494 L95.0433,84.8824 Z" id="Path" fill="url(#linearGradient-4)"></path>
                <polygon id="Path" fill="#7E57C2" points="69.8823 95.5271 75.5032 108.571 82.7673 105.561 77.4413 92.7972"></polygon>
                <path d="M77.7119,103.954 C76.8081,104.672 75.4597,104.504 73.7874,104.588 C71.5408,104.645 69.3859,105.459 67.6977,106.889 C65.4503,108.711 59.1673,113.476 52.8843,117.827 C51.7437,118.614 50.6031,119.392 49.5012,120.156 C45.7314,122.663 42.2516,124.782 39.9462,125.747 C39.3401,126.037 38.6856,126.221 38.013,126.292 C34.7845,126.371 34.0933,119.849 33.8952,114.645 C33.8324,112.917 33.8179,111.338 33.784,110.197 C33.6487,105.631 33.784,97.1529 33.784,97.1529 L49.9313,95.9417 L48.2204,106.721 L47.9208,108.627 L47.9208,108.641 L52.7539,106.917 L52.9037,106.866 L70.0611,100.721 L71.2452,98.7507 L71.9992,100.614 L72.0717,100.614 L79.4179,99.6824 C79.4179,99.6824 79.5436,102.505 77.7119,103.954 Z" id="Path" fill="url(#linearGradient-5)"></path>
                <path d="M74.0048,35.9684 C73.5843,34.8597 73.2219,34.105 73.1155,33.8814 L73.1155,33.8255 C73.1155,33.8255 72.7434,34.7107 69.9402,34.4964 C67.137,34.2821 66.2091,32.9404 66.2091,32.9404 C66.2091,32.9404 67.0887,35.8473 63.749,37.0911 C60.535,38.293 59.2688,37.5151 59.1818,37.4592 C59.3509,37.6362 61.8641,40.2263 60.1967,42.2807 C58.4713,44.4096 54.5903,43.9903 54.5903,43.9903 L54.5903,44.0183 C55.0787,45.0844 55.6257,46.1247 56.2288,47.1348 C56.5477,47.6659 56.8619,48.155 57.1954,48.6116 L57.1954,48.6442 C58.0513,49.9863 59.2071,51.1274 60.5785,51.9843 C59.9757,55.3934 58.2446,58.5229 55.644,60.9053 C56.5188,61.3453 57.4211,61.7327 58.3456,62.0653 C60.1484,62.7221 62.5698,63.3743 64.7301,63.1926 C67.2334,62.9346 69.5465,61.785 71.2161,59.9689 L70.1094,55.8741 L69.1137,52.1846 C78.1129,49.9718 75.6384,40.3474 74.0048,35.9684 Z M68.6111,52.3197 L68.7706,52.2824 L69.0267,52.2126 C68.654,52.368 68.2602,52.4715 67.8571,52.52 C68.065,52.4688 68.2776,52.4129 68.4999,52.3476 L68.6111,52.3197 Z" id="Shape" fill="url(#linearGradient-6)"></path>
                <path d="M79.4226,33.7044 C75.7108,36.9933 74.1062,36.0662 74.0047,35.9777 L74.0047,35.9684 C73.5842,34.8597 73.2217,34.105 73.1202,33.8814 L73.0961,33.8255 C73.0961,33.8255 72.7191,34.7106 69.9159,34.4963 C67.1127,34.282 66.1896,32.9404 66.1896,32.9404 C66.1896,32.9404 67.0692,35.8473 63.7296,37.0911 C60.5107,38.293 59.2445,37.515 59.1623,37.4591 C59.3315,37.6315 61.8447,40.2216 60.1772,42.276 C58.4518,44.4049 54.5709,43.9903 54.5709,43.9903 L54.5709,44.0136 C55.0591,45.0813 55.606,46.1232 56.2093,47.1348 C56.5315,47.6627 56.8537,48.155 57.1759,48.6115 L57.1759,48.6441 C57.1759,48.6441 55.8516,51.1551 53.4883,51.1038 C51.1249,51.0526 51.0717,48.7746 51.0717,48.7746 C51.0717,48.7746 49.3995,51.6815 44.2329,48.8817 C39.0664,46.082 42.5123,42.0244 42.5123,42.0244 C42.5123,42.0244 38.8489,39.3225 38.8489,35.2743 C38.8489,31.2261 44.5519,28.1468 44.5519,28.1468 C44.5519,28.1468 42.5123,23.4464 45.9535,20.8563 C49.3946,18.2662 54.566,20.0224 54.566,20.0224 C54.566,20.0224 54.4646,14.0083 59.7326,14.1062 C65.0007,14.204 66.1944,17.3112 66.1944,17.3112 C66.1944,17.3112 70.9308,13.7801 75.6189,17.1062 C80.307,20.4324 78.3786,26.2322 78.3786,26.2322 C78.3786,26.2322 83.2939,30.2804 79.4226,33.7044 Z" id="Path" fill="url(#linearGradient-7)"></path>
                <path d="M70.1481,55.8601 C67.9008,55.1753 63.9038,52.5619 63.9038,52.5619 C65.4812,52.7225 67.075,52.6408 68.6257,52.3196 L68.7852,52.2824 L69.0945,52.1938 L69.138,52.1938 L70.1481,55.8601 Z" id="Path" fill="#000000" opacity="0.15"></path>
                <path d="M52.0867,81.9569 L49.907,95.9323 L48.1961,106.712 L44.2136,109.903 L52.8793,106.87 C52.8793,106.87 50.6319,100.684 52.0867,81.9569 Z" id="Path" fill="#000000" opacity="0.15"></path>
                <path d="M49.4866,120.133 C50.516,120.352 51.5503,120.543 52.5991,120.711 C52.6522,119.756 52.7489,118.791 52.8842,117.827 L49.4866,120.133 Z" id="Path" fill="#000000" opacity="0.15"></path>
            </g>
        </g>
    </g>
</svg>